<svg fill="none" height="28" viewBox="0 0 136 28" width="136" xmlns="http://www.w3.org/2000/svg"><g fill="#fff"><path d="m22.8451 10.7197-5.2134 5.0377-1.2887-1.2887c-.6444-.6444-1.6402-.6444-2.2845 0-.6444.6443-.6444 1.6402 0 2.2845l2.2845 2.2845c.3514.3515.8201.4687 1.2887.4687s.9958-.1758 1.4644-.4687l6.0335-5.8577c.6443-.6444.6443-1.6402 0-2.2845-.7029-.6444-1.6402-.8201-2.2845-.1758z"/><path d="m34.3849 8.78661c-1.6401-1.8159-3.9246-3.1046-6.3263-3.57322-1.2887-2.10879-3.3975-3.74896-5.682-4.569039-1.113-.468619-2.2846-.644351-3.5733-.644351-5.8577 0-10.7782 4.56904-11.07108 10.251-4.45189.6444-7.73222 4.3934-7.73222 8.7867 0 4.9205 4.10042 8.9623 8.96234 8.9623h16.92886c6.385 0 11.5983-5.2134 11.5983-11.5398 0-2.8117-1.1129-5.5648-3.1046-7.67359zm-8.6108 16.10879h-16.98749c-3.28033 0-5.68201-2.4603-5.68201-5.682 0-3.2218 2.63599-5.682 5.68201-5.682h1.93309v-2.2845c0-4.39334 3.5732-7.96657 7.9665-7.96657.9958 0 1.8159.17574 2.636.46862 1.8159.64435 3.3975 1.93306 4.3933 3.74896l.4686.82008.8201.17573c1.933.17574 3.9247 1.11297 5.2134 2.63598 1.4644 1.6402 2.2845 3.5732 2.2845 5.682-.2929 4.3347-4.0418 8.0837-8.728 8.0837z"/><path d="m49.5312 11.2755h2.1165c-.0639-2.32954-2.1236-4.01988-5.0781-4.01988-2.9191 0-5.1563 1.66903-5.1563 4.17618 0 2.0241 1.4489 3.2102 3.7855 3.8423l1.7188.4687c1.5554.412 2.7557.9233 2.7557 2.2159 0 1.4205-1.3566 2.358-3.2245 2.358-1.6903 0-3.0965-.7528-3.2244-2.3367h-2.2017c.1421 2.635 2.1804 4.2614 5.4403 4.2614 3.4162 0 5.3836-1.7969 5.3836-4.2614 0-2.6207-2.3367-3.6363-4.1833-4.0909l-1.4204-.3693c-1.1364-.2912-2.6492-.8238-2.6421-2.2159 0-1.2358 1.1293-2.15198 2.9191-2.15198 1.669 0 2.8551.78125 3.0113 2.12358z"/><path d="m57.4733 22.2414c1.804 0 2.8196-.9162 3.2245-1.7329h.0852v1.4914h2.0739v-7.2443c0-3.1747-2.5-3.8068-4.233-3.8068-1.9744 0-3.7926.7955-4.5028 2.7841l1.9957.4545c.3125-.7741 1.108-1.5199 2.5355-1.5199 1.3708 0 2.0739.7174 2.0739 1.9532v.0497c0 .7741-.7955.7599-2.7557.9872-2.0668.2415-4.1832.7813-4.1832 3.2599 0 2.1449 1.6122 3.3239 3.686 3.3239zm.4617-1.7045c-1.2003 0-2.0668-.5398-2.0668-1.5909 0-1.1364 1.0086-1.5412 2.2372-1.7046.689-.0923 2.3225-.277 2.6279-.5824v1.4063c0 1.2926-1.0298 2.4716-2.7983 2.4716z"/><path d="m68.8601 22.2414c1.8039 0 2.8196-.9162 3.2244-1.7329h.0852v1.4914h2.0739v-7.2443c0-3.1747-2.5-3.8068-4.233-3.8068-1.9744 0-3.7926.7955-4.5028 2.7841l1.9957.4545c.3125-.7741 1.108-1.5199 2.5355-1.5199 1.3708 0 2.0739.7174 2.0739 1.9532v.0497c0 .7741-.7955.7599-2.7557.9872-2.0667.2415-4.1832.7813-4.1832 3.2599 0 2.1449 1.6122 3.3239 3.6861 3.3239zm.4616-1.7045c-1.2003 0-2.0668-.5398-2.0668-1.5909 0-1.1364 1.0086-1.5412 2.2373-1.7046.6889-.0923 2.3224-.277 2.6278-.5824v1.4063c0 1.2926-1.0298 2.4716-2.7983 2.4716z"/><path d="m85.1758 11.2755h2.1164c-.0639-2.32954-2.1235-4.01988-5.0781-4.01988-2.919 0-5.1562 1.66903-5.1562 4.17618 0 2.0241 1.4488 3.2102 3.7855 3.8423l1.7187.4687c1.5554.412 2.7557.9233 2.7557 2.2159 0 1.4205-1.3565 2.358-3.2244 2.358-1.6904 0-3.0966-.7528-3.2245-2.3367h-2.2017c.1421 2.635 2.1804 4.2614 5.4404 4.2614 3.4162 0 5.3835-1.7969 5.3835-4.2614 0-2.6207-2.3366-3.6363-4.1832-4.0909l-1.4205-.3693c-1.1364-.2912-2.6491-.8238-2.642-2.2159 0-1.2358 1.1292-2.15198 2.919-2.15198 1.669 0 2.8551.78125 3.0114 2.12358z"/><path d="m90.1136 21.9999h2.0739v-1.6974h.1775c.3836.696 1.1648 1.9105 3.1534 1.9105 2.6421 0 4.5596-2.1165 4.5596-5.6463 0-3.5369-1.9459-5.6179-4.5809-5.6179-2.0241 0-2.7556 1.2358-3.1321 1.9105h-.1278v-5.40482h-2.1236zm2.081-5.4545c0-2.2798.9943-3.7926 2.848-3.7926 1.9247 0 2.8906 1.6264 2.8906 3.7926 0 2.1875-.9943 3.8565-2.8906 3.8565-1.8253 0-2.848-1.5625-2.848-3.8565z"/><path d="m107.058 22.2201c3.075 0 5.085-2.2514 5.085-5.625 0-3.3949-2.01-5.6463-5.085-5.6463s-5.085 2.2514-5.085 5.6463c0 3.3736 2.01 5.625 5.085 5.625zm.007-1.7827c-2.01 0-2.947-1.7542-2.947-3.8494 0-2.0881.937-3.8636 2.947-3.8636 1.996 0 2.933 1.7755 2.933 3.8636 0 2.0952-.937 3.8494-2.933 3.8494z"/><path d="m116.637 7.45448h-2.124v14.54542h2.124z"/><path d="m123.578 22.213c1.988 0 2.77-1.2145 3.153-1.9105h.178v1.6974h2.074v-14.54542h-2.124v5.40482h-.128c-.383-.6747-1.108-1.9105-3.139-1.9105-2.635 0-4.574 2.081-4.574 5.6179 0 3.5298 1.911 5.6463 4.56 5.6463zm.468-1.8111c-1.896 0-2.883-1.669-2.883-3.8565 0-2.1662.966-3.7926 2.883-3.7926 1.854 0 2.849 1.5128 2.849 3.7926 0 2.294-1.016 3.8565-2.849 3.8565z"/></g></svg>