<svg xmlns="http://www.w3.org/2000/svg" xmlns:xlink="http://www.w3.org/1999/xlink" width="337" height="337" viewBox="0 0 337 337"><defs><clipPath id="a"><rect width="284.155" height="279.175" fill="none"/></clipPath><clipPath id="c"><rect width="337" height="337"/></clipPath></defs><g id="b" clip-path="url(#c)"><rect width="337" height="337" fill="#fff"/><g transform="translate(26 29)"><g clip-path="url(#a)"><path d="M220.645,185.524C213.654,202.565,204,212.2,204,212.2l2.631,57.426a1.957,1.957,0,0,1-2.771,1.868s-61.518-34.6-61.569-34.607C58.773,255.7,7.5,202.654,7.5,153.839c0-41.109,40.875-75.49,95.81-85.123" fill="none" stroke="#f26722" stroke-linecap="round" stroke-miterlimit="10" stroke-width="15"/><path d="M273.7,153.132l3.531-3.534,4.126-4.217a9.482,9.482,0,0,0,0-13.443l-27.275-27.371a9.6,9.6,0,0,0-13.545,0l-7.358,7.457a11.166,11.166,0,0,1-14.425.881,291.878,291.878,0,0,1-25.116-22.271,288.828,288.828,0,0,1-22.368-25.218,11.171,11.171,0,0,1,.88-14.423l7.366-7.458a9.478,9.478,0,0,0,0-13.44L152.241,2.724a9.777,9.777,0,0,0-13.54,0L116.92,24.6a9.785,9.785,0,0,0-2.848,6.672v.1a8.612,8.612,0,0,0,.587,3.141c8.93,25.508,27.667,54.65,54.066,81.041,26.295,26.3,55.334,45.035,80.846,53.865a9.542,9.542,0,0,0,10.006-2.158l5.4-5.494Z" fill="#f26722"/><path d="M115.129,188.58H121l7.279-71.612a10.438,10.438,0,0,0-4.532-9.7,10.8,10.8,0,0,0-6.064-1.862h-2.553a10.816,10.816,0,0,0-6.064,1.86v0a10.437,10.437,0,0,0-4.533,9.7l7.28,71.612Z" fill="#f26722"/><path d="M120.581,192.663h-8.35a4.974,4.974,0,0,0-4.973,4.973v11.306a4.973,4.973,0,0,0,4.973,4.973h8.35a4.973,4.973,0,0,0,4.973-4.973V197.636a4.975,4.975,0,0,0-4.973-4.973" fill="#f26722"/></g></g></g></svg>